<?xml version="1.0" encoding="UTF-8"?>
<svg id="Layer_1" xmlns="http://www.w3.org/2000/svg" version="1.1" viewBox="0 0 210 42">
  <!-- Generator: Adobe Illustrator 29.0.1, SVG Export Plug-In . SVG Version: 2.1.0 Build 192)  -->
  <defs>
    <style>
      .st0 {
        fill: #002e6d;
      }
    </style>
  </defs>
  <path class="st0" d="M17.64,8.85C8.7,8.85,1.44,16.21,1.44,25.25s7.26,16.4,16.2,16.4c3.69,0,7.1-1.26,9.83-3.37v.15c0,1.78,1.43,3.22,3.18,3.22s3.18-1.44,3.18-3.22v-13.2s0-.02,0-.03c-.03-9.02-7.28-16.34-16.19-16.34ZM17.64,35.2c-5.42,0-9.83-4.46-9.83-9.95s4.41-9.95,9.83-9.95,9.83,4.46,9.83,9.95-4.41,9.95-9.83,9.95Z"/>
  <path class="st0" d="M42.11,1.89c-1.76,0-3.18,1.44-3.18,3.22v33.32c0,1.78,1.43,3.22,3.18,3.22s3.18-1.44,3.18-3.22V5.11c0-1.78-1.43-3.22-3.18-3.22Z"/>
  <path class="st0" d="M172.53,8.57c-1.76,0-3.18,1.44-3.18,3.22v26.63c0,1.78,1.43,3.22,3.18,3.22s3.18-1.44,3.18-3.22V11.79c0-1.78-1.43-3.22-3.18-3.22Z"/>
  <path class="st0" d="M135.5,32.39l-1.03.97c-2.13,1.99-5.21,2.42-7.5,1.04-1.71-1.03-2.57-2.66-2.57-4.84v-14.18h8.97c1.76.06,3.22-1.35,3.26-3.13.04-1.78-1.35-3.26-3.1-3.3h-9.13V3.51c0-1.78-1.43-3.22-3.18-3.22s-3.18,1.44-3.18,3.22v26.05c0,4.48,2.02,8.16,5.68,10.38,1.9,1.15,4.05,1.71,6.2,1.71,3.18,0,6.39-1.21,8.88-3.55l1.03-.97c1.29-1.21,1.37-3.25.17-4.56-1.19-1.31-3.21-1.39-4.5-.18Z"/>
  <path class="st0" d="M163.47,12.34c-.96-.87-2.03-1.59-3.2-2.15-3.84-1.83-8.23-1.66-11.73.45-3.66,2.21-5.68,5.9-5.68,10.38v17.26c0,1.77,1.35,3.33,3.1,3.37,1.8.05,3.27-1.41,3.27-3.22v-17.41c0-2.18.87-3.81,2.57-4.84,1.68-1.01,3.83-1.07,5.75-.16.64.31,1.23.71,1.75,1.2,1.37,1.28,3.56,1.12,4.71-.43,1.02-1.36.71-3.31-.54-4.45Z"/>
  <path class="st0" d="M108.37,32.15c-1.82,1.91-4.27,3-6.89,3.05-2.64.04-5.11-.94-7-2.78-3.9-3.81-4.02-10.12-.26-14.07,1.69-1.78,3.97-2.86,6.41-3.03,2.76-.19,5.49.81,7.49,2.76,1.27,1.23,3.28,1.2,4.5-.09,1.22-1.28,1.18-3.32-.09-4.56-3.29-3.2-7.79-4.86-12.34-4.55-4.02.28-7.77,2.05-10.56,4.99-6.19,6.51-6,16.92.43,23.19,3.04,2.96,7.02,4.59,11.22,4.59.1,0,.21,0,.32,0,4.33-.08,8.36-1.87,11.36-5.02,1.22-1.28,1.18-3.32-.09-4.56-1.27-1.23-3.28-1.2-4.5.09Z"/>
  <path class="st0" d="M207.58,32.07c-1.27-1.23-3.28-1.2-4.5.09-1.82,1.91-4.27,3-6.89,3.05-2.64.04-5.11-.94-7-2.78-3.9-3.81-4.02-10.12-.26-14.07,1.69-1.78,3.97-2.86,6.4-3.03,2.77-.19,5.49.81,7.49,2.76,1.27,1.24,3.28,1.2,4.5-.09,1.22-1.28,1.18-3.32-.09-4.56-3.29-3.21-7.79-4.86-12.34-4.55-4.02.28-7.77,2.05-10.56,4.99-6.19,6.51-6,16.92.43,23.19,3.04,2.96,7.02,4.59,11.22,4.59.1,0,.21,0,.32,0,4.33-.08,8.36-1.87,11.36-5.02,1.22-1.28,1.18-3.32-.09-4.56Z"/>
  <path class="st0" d="M66.62,8.51c-4.53,0-8.9,1.92-11.99,5.28-3.13,3.4-4.69,7.84-4.37,12.5.56,8.19,7.08,14.81,15.17,15.39.39.03.77.04,1.16.04,4.25,0,8.36-1.67,11.43-4.67,1.29-1.26,1.32-3.34.08-4.65-1.25-1.3-3.3-1.34-4.59-.08-2.05,2.01-4.76,3-7.61,2.79-4.74-.34-8.58-4.11-9.12-8.85h19.97c1.09,0,2.11-.55,2.71-1.48l1.99-3.06c.6-.92.7-2.08.28-3.09-2.57-6.16-8.5-10.13-15.1-10.13ZM58.28,19.69c.32-.5.68-.98,1.1-1.42,1.9-2.06,4.47-3.19,7.24-3.19,3.42,0,6.54,1.76,8.34,4.61h-16.68Z"/>
</svg>