<svg width="106" height="21" viewBox="0 0 106 21" fill="none" xmlns="http://www.w3.org/2000/svg">
<path d="M8.30858 20.9731C3.73751 20.9731 0 17.2356 0 12.6645C0 8.09348 3.73751 4.35596 8.30858 4.35596C12.8796 4.35596 16.6172 8.09348 16.6172 12.6645C16.6172 17.2356 12.8796 20.9731 8.30858 20.9731ZM8.30858 7.60948C5.53905 7.60948 3.28041 9.86812 3.28041 12.6376C3.28041 15.4072 5.53905 17.6658 8.30858 17.6658C11.0781 17.6658 13.3367 15.4072 13.3367 12.6376C13.3367 9.86812 11.0781 7.60948 8.30858 7.60948Z" fill="white"/>
<path d="M20.8384 20.9731C19.9242 20.9731 19.1982 20.2471 19.1982 19.3328V2.4737C19.1982 1.55949 19.9242 0.833496 20.8384 0.833496C21.7527 0.833496 22.4787 1.55949 22.4787 2.4737V19.3328C22.4787 20.2202 21.7527 20.9731 20.8384 20.9731Z" fill="white"/>
<path d="M87.0113 20.9733C86.0971 20.9733 85.3711 20.2473 85.3711 19.3331V5.83503C85.3711 4.92081 86.0971 4.19482 87.0113 4.19482C87.9255 4.19482 88.6515 4.92081 88.6515 5.83503V19.3331C88.6246 20.2204 87.8986 20.9733 87.0113 20.9733Z" fill="white"/>
<path d="M65.8503 20.9462C64.7478 20.9462 63.6454 20.6505 62.6774 20.0858C60.7952 18.9565 59.7734 17.1012 59.7734 14.8425V1.64021C59.7734 0.725994 60.4994 0 61.4136 0C62.3279 0 63.0538 0.725994 63.0538 1.64021V14.8425C63.0538 15.9449 63.511 16.7785 64.3714 17.2894C65.5545 17.9885 67.114 17.7734 68.2165 16.7516L68.7542 16.2676C69.4264 15.6492 70.4482 15.7029 71.0666 16.3483C71.6851 17.0205 71.6313 18.0423 70.986 18.6607L70.4482 19.1447C69.1307 20.3547 67.4905 20.9462 65.8503 20.9462Z" fill="white"/>
<path d="M74.1314 20.973C73.2172 20.973 72.4912 20.247 72.4912 19.3327V10.5133C72.4912 8.25465 73.513 6.37245 75.3952 5.27001C77.1967 4.19447 79.4285 4.1138 81.4182 5.02801C82.0367 5.32379 82.6282 5.72712 83.1391 6.18422C83.8113 6.80266 83.8382 7.82443 83.2198 8.49664C82.6013 9.16886 81.5796 9.19574 80.9074 8.57731C80.6385 8.33531 80.3427 8.1202 80.02 7.95887C79.0251 7.50177 77.9227 7.52865 77.0623 8.03954C76.175 8.55042 75.7447 9.38397 75.7447 10.4864V19.3059C75.7716 20.2201 75.0456 20.973 74.1314 20.973Z" fill="white"/>
<path d="M14.9771 20.9731C14.0629 20.9731 13.3369 20.2471 13.3369 19.3328V11.5889C13.3369 10.6747 14.0629 9.94873 14.9771 9.94873C15.8913 9.94873 16.6173 11.7503 16.6173 12.6376V19.3328C16.5904 20.2202 15.8644 20.9731 14.9771 20.9731Z" fill="white"/>
<path d="M31.8096 13.794C31.5676 13.5251 31.4062 13.1487 31.4062 12.7454C31.4062 11.8311 32.1054 11.1052 33.0196 11.0783L38.2628 10.9707C39.1771 10.9707 39.9031 11.6698 39.9299 12.584C39.9299 13.4982 39.2308 14.2242 38.3166 14.2511L33.0733 14.3587C32.5625 14.3318 32.1054 14.1167 31.8096 13.794Z" fill="#E1273E"/>
<path d="M60.7149 7.1524C60.4729 6.88352 60.3115 6.50708 60.3115 6.10375C60.3115 5.18953 61.0106 4.46354 61.9248 4.43665L64.5599 4.3291C65.4741 4.3291 66.2001 5.02821 66.227 5.94242C66.227 6.85663 65.5279 7.58262 64.6137 7.60951L61.9786 7.71706C61.4677 7.71706 61.0106 7.50196 60.7149 7.1524Z" fill="white"/>
<path d="M51.169 20.9733C49.0179 20.9733 46.9744 20.1397 45.4149 18.6608C42.1076 15.488 42.0269 10.2178 45.1997 6.91053C46.6248 5.43166 48.5608 4.51745 50.6043 4.383C52.9437 4.22167 55.2561 5.05522 56.9232 6.69542C57.5685 7.31386 57.5954 8.36252 56.9769 9.00784C56.3585 9.65317 55.3099 9.68006 54.6645 9.06162C53.6428 8.06674 52.2446 7.55586 50.8195 7.66341C49.5826 7.74408 48.3995 8.28185 47.5391 9.19606C45.6031 11.1858 45.6837 14.3856 47.6735 16.3215C48.6415 17.2626 49.9052 17.7466 51.2766 17.7197C52.621 17.6929 53.8848 17.1551 54.799 16.1871C55.4174 15.5418 56.4661 15.5149 57.1114 16.1333C57.7567 16.7518 57.7836 17.8004 57.1652 18.4457C55.6325 20.0322 53.5621 20.9464 51.3303 21.0002C51.2766 20.9733 51.2228 20.9733 51.169 20.9733Z" fill="white"/>
<path d="M33.4766 20.9733C31.3255 20.9733 29.282 20.1397 27.7225 18.6608C24.4152 15.488 24.3345 10.2178 27.5074 6.91053C28.9325 5.43166 30.8684 4.51745 32.912 4.383C35.2513 4.22167 37.5637 5.05522 39.2308 6.69542C39.8761 7.31386 39.903 8.36252 39.2846 9.00784C38.6661 9.65317 37.6175 9.68006 36.9722 9.06162C35.9504 8.06674 34.5522 7.55586 33.1271 7.66341C31.8902 7.74408 30.7071 8.28185 29.8467 9.19606C27.9107 11.1858 27.9914 14.3856 29.9811 16.3215C30.9491 17.2626 32.2129 17.7466 33.5842 17.7197C34.9286 17.6929 36.1924 17.1551 37.1066 16.1871C37.725 15.5418 38.7737 15.5149 39.419 16.1333C40.0643 16.7518 40.0912 17.8004 39.4728 18.4457C37.9401 20.0322 35.8697 20.9464 33.638 21.0002C33.5842 20.9733 33.5304 20.9733 33.4766 20.9733Z" fill="white"/>
<path d="M99.0303 20.9733C96.8793 20.9733 94.8357 20.1397 93.2762 18.6608C89.9689 15.488 89.8882 10.2178 93.0611 6.91053C94.4862 5.43166 96.4222 4.51745 98.4657 4.383C100.805 4.22167 103.117 5.05522 104.785 6.69542C105.43 7.31386 105.457 8.36252 104.838 9.00784C104.22 9.65317 103.171 9.68006 102.526 9.06162C101.504 8.06674 100.106 7.55586 98.6808 7.66341C97.4439 7.74408 96.2608 8.28185 95.4004 9.19606C93.4644 11.1858 93.5451 14.3856 95.5348 16.3215C96.5028 17.2626 97.7666 17.7466 99.1379 17.7197C100.482 17.6929 101.746 17.1551 102.66 16.1871C103.279 15.5418 104.327 15.5149 104.973 16.1333C105.618 16.7518 105.645 17.8004 105.027 18.4457C103.494 20.0322 101.423 20.9464 99.1917 21.0002C99.1379 20.9733 99.0841 20.9733 99.0303 20.9733Z" fill="white"/>
</svg>
