<?xml version="1.0" encoding="utf-8"?>
<!-- Generator: Adobe Illustrator 24.1.0, SVG Export Plug-In . SVG Version: 6.00 Build 0)  -->
<svg viewBox="0 0 120 60" version="1.1" id="Layer_1" xmlns="http://www.w3.org/2000/svg" xmlns:xlink="http://www.w3.org/1999/xlink" x="0px" y="0px"
 xml:space="preserve">
<style type="text/css">
.st0{fill:#002E6D;}
.st1{fill:#FFFFFF;}
</style>
<g>
<path class="st0" d="M14.34,21.05L14.34,21.05c5.16,0,9.34,4.18,9.34,9.34v0c0,5.16-4.18,9.34-9.34,9.34h0
C9.18,39.72,5,35.54,5,30.38v0C5,25.23,9.18,21.05,14.34,21.05z"/>
<path class="st1" d="M19.89,26c-0.02-0.02-0.04-0.04-0.05-0.07c-0.03-0.04-0.06-0.07-0.09-0.11c-1.29-1.57-3.24-2.58-5.41-2.58
c-1.96,0-3.74,0.82-5.02,2.14c-1.25,1.25-2.02,2.97-2.02,4.86c0,0.02,0,0.04,0,0.07c0,0.02,0,0.05,0,0.07
c0,3.94,3.16,7.14,7.04,7.14c0.47,0,0.86-0.39,0.86-0.86c0-0.47-0.39-0.86-0.87-0.86c0,0-0.06,0-0.06,0l-0.02,0
c-2.91-0.05-5.28-2.48-5.28-5.42c0-0.03,0-0.07,0-0.1c0,0,0.01-0.01,0.01-0.01c0-0.01,0-0.01,0-0.02c0-0.16,0.01-0.33,0.02-0.49
c0.31-2.7,2.58-4.8,5.33-4.8c0.14,0,0.27,0.01,0.41,0.02c0.03,0,0.06,0,0.09,0.01c0.12,0.01,0.23,0.03,0.34,0.04
c0.06,0.01,0.11,0.02,0.17,0.03c0.06,0.01,0.11,0.02,0.17,0.04c0.12,0.03,0.24,0.06,0.36,0.09c0.01,0,0.02,0.01,0.03,0.01
c0.97,0.3,1.82,0.87,2.47,1.61c0.03,0.04,0.06,0.07,0.09,0.11c0.05,0.05,0.09,0.11,0.13,0.17c0.06,0.08,0.12,0.16,0.17,0.24
c0.02,0.03,0.04,0.06,0.06,0.09c0.07,0.11,0.13,0.21,0.19,0.32c0.01,0.01,0.01,0.03,0.02,0.04c0.13,0.23,0.23,0.48,0.33,0.73
c0.01,0.03,0.02,0.06,0.03,0.08c0.03,0.1,0.06,0.2,0.09,0.3c0.11,0.41,0.17,0.83,0.18,1.27l0,0.02c0,0,0,0.06,0,0.06
c0,0.47,0.38,0.85,0.85,0.85c0.47,0,0.85-0.38,0.85-0.85C21.36,28.64,20.81,27.17,19.89,26z"/>
<path class="st1" d="M14.34,26.54c-2.09,0-3.79,1.72-3.79,3.84c0,2.12,1.7,3.84,3.79,3.84c0.86,0,1.66-0.29,2.3-0.79v0.03
c0,0.42,0.33,0.75,0.74,0.75c0.41,0,0.74-0.34,0.74-0.75v-3.09c0,0,0,0,0-0.01C18.12,28.26,16.42,26.54,14.34,26.54z M14.34,32.71
c-1.27,0-2.3-1.04-2.3-2.33c0-1.28,1.03-2.33,2.3-2.33c1.27,0,2.3,1.04,2.3,2.33C16.63,31.66,15.6,32.71,14.34,32.71z"/>
</g>
<g>
<path class="st0" d="M37.3,23.77c-3.63,0-6.59,2.99-6.59,6.67s2.96,6.67,6.59,6.67c1.5,0,2.89-0.51,4-1.37v0.06
c0,0.72,0.58,1.31,1.3,1.31s1.3-0.59,1.3-1.31v-5.37c0,0,0-0.01,0-0.01C43.87,26.75,40.92,23.77,37.3,23.77z M37.3,34.49
c-2.21,0-4-1.82-4-4.05c0-2.23,1.79-4.05,4-4.05c2.21,0,4,1.82,4,4.05C41.3,32.68,39.5,34.49,37.3,34.49z"/>
<path class="st0" d="M47.26,20.93c-0.72,0-1.3,0.59-1.3,1.31v13.56c0,0.72,0.58,1.31,1.3,1.31c0.72,0,1.3-0.59,1.3-1.31V22.25
C48.55,21.52,47.97,20.93,47.26,20.93z"/>
<path class="st0" d="M100.33,23.65c-0.72,0-1.3,0.59-1.3,1.31v10.84c0,0.72,0.58,1.31,1.3,1.31c0.72,0,1.3-0.59,1.3-1.31V24.97
C101.63,24.24,101.05,23.65,100.33,23.65z"/>
<path class="st0" d="M85.27,33.35l-0.42,0.39c-0.87,0.81-2.12,0.99-3.05,0.42c-0.7-0.42-1.05-1.08-1.05-1.97v-5.77l3.65,0.01
c0.72,0.02,1.31-0.55,1.33-1.28c0.02-0.72-0.55-1.33-1.26-1.34l-3.71-0.01V21.6c0-0.72-0.58-1.31-1.3-1.31
c-0.72,0-1.3,0.59-1.3,1.31v10.6c0,1.82,0.82,3.32,2.31,4.22c0.77,0.47,1.65,0.7,2.53,0.7c1.29,0,2.6-0.49,3.62-1.45l0.42-0.39
c0.53-0.49,0.56-1.32,0.07-1.85C86.61,32.89,85.79,32.86,85.27,33.35z"/>
<path class="st0" d="M96.65,25.19c-0.39-0.35-0.83-0.65-1.3-0.87c-1.56-0.75-3.35-0.68-4.77,0.18c-1.49,0.9-2.31,2.4-2.31,4.22
v7.03c0,0.72,0.55,1.35,1.26,1.37c0.73,0.02,1.33-0.58,1.33-1.31v-7.09c0-0.89,0.35-1.55,1.05-1.97c0.68-0.41,1.56-0.44,2.34-0.06
c0.26,0.12,0.5,0.29,0.71,0.49c0.56,0.52,1.45,0.45,1.92-0.18C97.28,26.44,97.16,25.65,96.65,25.19z"/>
<path class="st0" d="M74.22,33.25c-0.74,0.78-1.74,1.22-2.81,1.24c-1.07,0.02-2.08-0.38-2.85-1.13c-1.59-1.55-1.64-4.12-0.11-5.73
c0.69-0.73,1.62-1.16,2.61-1.23c1.12-0.08,2.24,0.33,3.05,1.12c0.52,0.5,1.34,0.49,1.83-0.04c0.5-0.52,0.48-1.35-0.03-1.86
c-1.34-1.3-3.17-1.98-5.02-1.85c-1.63,0.11-3.16,0.83-4.3,2.03c-2.52,2.65-2.44,6.88,0.18,9.44c1.24,1.21,2.86,1.87,4.57,1.87
c0.04,0,0.09,0,0.13,0c1.76-0.03,3.4-0.76,4.62-2.04c0.5-0.52,0.48-1.35-0.03-1.86C75.54,32.72,74.72,32.73,74.22,33.25z"/>
<path class="st0" d="M114.6,33.22c-0.52-0.5-1.34-0.49-1.83,0.04c-0.74,0.78-1.74,1.22-2.81,1.24c-1.07,0.02-2.08-0.38-2.85-1.13
c-1.59-1.55-1.64-4.12-0.11-5.73c0.69-0.73,1.62-1.16,2.61-1.23c1.13-0.08,2.24,0.33,3.05,1.12c0.52,0.5,1.34,0.49,1.83-0.04
c0.5-0.52,0.48-1.35-0.03-1.86c-1.34-1.3-3.17-1.98-5.02-1.85c-1.63,0.11-3.16,0.83-4.3,2.03c-2.52,2.65-2.44,6.88,0.18,9.44
c1.24,1.21,2.86,1.87,4.57,1.87c0.04,0,0.09,0,0.13,0c1.76-0.03,3.4-0.76,4.62-2.04C115.13,34.55,115.12,33.72,114.6,33.22z"/>
<path class="st0" d="M57.23,23.63c-1.84,0-3.62,0.78-4.88,2.15c-1.28,1.38-1.91,3.19-1.78,5.09c0.23,3.34,2.88,6.03,6.18,6.26
c0.16,0.01,0.31,0.02,0.47,0.02c1.73,0,3.4-0.68,4.65-1.9c0.52-0.51,0.54-1.36,0.03-1.89c-0.51-0.53-1.34-0.55-1.87-0.03
c-0.83,0.82-1.94,1.22-3.1,1.14c-1.93-0.14-3.49-1.67-3.71-3.6h8.13c0.44,0,0.86-0.23,1.1-0.6l0.81-1.24
c0.24-0.37,0.29-0.85,0.11-1.26C62.33,25.25,59.92,23.63,57.23,23.63z M53.84,28.18c0.13-0.2,0.28-0.4,0.45-0.58
c0.77-0.84,1.82-1.3,2.95-1.3c1.39,0,2.66,0.72,3.39,1.88H53.84z"/>
</g>

</svg>
