<svg width="298" height="155" viewBox="0 0 298 155" fill="none" xmlns="http://www.w3.org/2000/svg">
<path d="M118.93 90.2157C118.399 89.8594 118.233 89.1467 118.598 88.596C118.963 88.0777 119.693 87.9157 120.258 88.272C120.589 88.4988 120.955 88.7256 121.353 88.9523C124.075 90.5721 126.63 91.382 128.721 91.382C130.613 91.382 132.173 90.6693 133.136 89.2763C133.202 89.1791 133.269 89.1143 133.269 89.0495C133.534 88.596 133.767 88.1425 133.899 87.6889C134.165 86.7495 134.132 85.7776 133.733 84.903C133.335 83.9635 132.505 83.0888 131.244 82.3437C130.414 81.8578 129.352 81.4043 128.091 81.0479C124.871 80.1733 122.515 78.9099 121.22 77.2577C119.826 75.4112 119.726 73.2083 121.22 70.5195C122.216 68.7378 124.241 67.6364 126.83 67.442C129.053 67.28 131.742 67.7983 134.464 69.1589C135.061 69.4505 135.293 70.1632 134.995 70.7139C134.696 71.297 133.966 71.5238 133.402 71.2322C131.078 70.066 128.854 69.6449 127.029 69.7744C125.27 69.904 123.909 70.5843 123.344 71.6533C122.349 73.4351 122.349 74.8281 123.178 75.8971C124.108 77.1281 126.066 78.1 128.755 78.8451C130.215 79.2338 131.443 79.7845 132.472 80.4C134.165 81.4043 135.293 82.6677 135.891 84.0283C136.522 85.4213 136.588 86.9438 136.156 88.3692C135.957 89.0171 135.659 89.6974 135.26 90.3129C135.161 90.4425 135.094 90.5721 135.061 90.6369C133.634 92.7102 131.377 93.7468 128.655 93.7468C126.133 93.7468 123.178 92.8397 120.058 90.9932C119.76 90.7341 119.361 90.5073 118.93 90.2157Z" fill="#EA501F"/>
<path d="M139.613 68.5173C139.613 67.9004 140.085 67.4133 140.674 67.4133C141.263 67.4133 141.734 67.9004 141.734 68.5173V92.6428C141.734 93.2598 141.263 93.7468 140.674 93.7468C140.085 93.7468 139.613 93.2598 139.613 92.6428V68.5173Z" fill="#EA501F"/>
<path d="M141.764 83.7474C141.329 84.2235 140.592 84.3188 140.056 83.9061C139.553 83.4934 139.453 82.795 139.888 82.2871C141.731 80.1602 143.808 78.8587 145.851 78.2873C147.325 77.8746 148.766 77.8429 150.005 78.1603C151.312 78.5095 152.451 79.2079 153.255 80.2872C154.026 81.303 154.461 82.6045 154.461 84.16V92.6041C154.461 93.2389 153.925 93.7469 153.255 93.7469C152.585 93.7469 152.049 93.2389 152.049 92.6041V84.16C152.049 83.0807 151.781 82.2236 151.312 81.5887C150.843 80.9856 150.206 80.5729 149.402 80.3507C148.565 80.1285 147.593 80.1602 146.555 80.4459C144.947 80.9221 143.272 82.0014 141.764 83.7474Z" fill="#EA501F"/>
<path d="M166.657 77.9468C168.861 77.9468 170.842 78.8351 172.28 80.2629C173.717 81.6906 174.611 83.6576 174.611 85.8468C174.611 88.036 173.717 90.0031 172.28 91.4308C170.842 92.8585 168.861 93.7469 166.657 93.7469C164.453 93.7469 162.473 92.8585 161.035 91.4308C159.598 90.0031 158.703 88.036 158.703 85.8468C158.703 83.6576 159.598 81.6906 161.035 80.2629C162.473 78.8351 164.485 77.9468 166.657 77.9468ZM170.682 81.8492C169.66 80.8339 168.223 80.1994 166.657 80.1994C165.092 80.1994 163.686 80.8339 162.632 81.8492C161.61 82.8645 160.971 84.2922 160.971 85.8468C160.971 87.4014 161.61 88.8292 162.632 89.8444C163.655 90.8597 165.092 91.4942 166.657 91.4942C168.223 91.4942 169.628 90.8597 170.682 89.8444C171.705 88.8292 172.343 87.4014 172.343 85.8468C172.343 84.2922 171.705 82.8645 170.682 81.8492Z" fill="#EA501F"/>
<path d="M177.793 79.1135C177.793 78.4653 178.331 77.9468 179.003 77.9468C179.675 77.9468 180.212 78.4653 180.212 79.1135V80.572C180.313 80.4748 180.38 80.3776 180.481 80.3127C181.993 78.8543 184.076 77.9468 186.395 77.9468C188.713 77.9468 190.797 78.8543 192.309 80.3127C193.821 81.7712 194.762 83.7807 194.762 86.017C194.762 88.2533 193.821 90.2627 192.309 91.7212C190.797 93.1797 188.713 94.0872 186.395 94.0872C184.076 94.0872 181.993 93.1797 180.481 91.7212C180.38 91.624 180.313 91.5267 180.212 91.4619V102.06C180.212 102.708 179.675 103.227 179.003 103.227C178.331 103.227 177.793 102.708 177.793 102.06V79.1135ZM190.595 81.9333C189.52 80.8961 188.008 80.2479 186.361 80.2479C184.715 80.2479 183.236 80.8961 182.128 81.9333C181.052 82.9704 180.38 84.4289 180.38 86.017C180.38 87.6051 181.052 89.0636 182.128 90.1007C183.203 91.1378 184.715 91.786 186.361 91.786C188.008 91.786 189.486 91.1378 190.595 90.1007C191.67 89.0636 192.342 87.6051 192.342 86.017C192.342 84.4289 191.67 82.9704 190.595 81.9333Z" fill="#EA501F"/>
<path d="M206.487 77.9468C208.468 77.9468 210.286 78.7081 211.617 80.0405C212.72 81.1191 213.175 82.1977 213.564 83.3398C214.571 86.5438 212.655 86.4169 212.071 86.4169H201.326C201.423 87.1783 201.618 87.8762 201.845 88.5107C202.267 89.4941 202.884 90.2237 203.663 90.7313C204.475 91.2389 205.513 91.4927 206.715 91.4927C208.013 91.4927 209.539 91.1437 211.227 90.4458C211.811 90.192 212.493 90.4775 212.753 91.0485C213.013 91.6196 212.72 92.2858 212.136 92.5395C210.188 93.3326 208.37 93.7133 206.747 93.745C205.091 93.7768 203.631 93.3961 202.429 92.6347C201.228 91.8733 200.189 90.8265 199.702 89.3672C198.599 86.1631 198.566 82.9908 201.358 80.0405C202.657 78.6764 204.507 77.9468 206.487 77.9468ZM209.993 81.6584C209.052 80.7702 207.818 80.2309 206.487 80.2309C205.156 80.2309 203.923 80.7702 202.981 81.6584C202.3 82.3246 201.748 83.1494 201.456 84.1011H211.552C211.195 83.1494 210.675 82.3246 209.993 81.6584Z" fill="#EA501F"/>
<path d="M224.517 77.9468C226.497 77.9468 228.315 78.7081 229.646 80.0405C230.75 81.1191 231.204 82.1977 231.594 83.3398C232.6 86.5438 230.685 86.4169 230.1 86.4169H219.355C219.452 87.1783 219.647 87.8762 219.874 88.5107C220.296 89.4941 220.913 90.2237 221.692 90.7313C222.504 91.2389 223.543 91.4927 224.744 91.4927C226.042 91.4927 227.568 91.1437 229.256 90.4458C229.841 90.192 230.522 90.4775 230.782 91.0485C231.042 91.6196 230.75 92.2858 230.165 92.5395C228.217 93.3326 226.4 93.7133 224.776 93.745C223.121 93.7768 221.66 93.3961 220.459 92.6347C219.258 91.8733 218.219 90.8265 217.732 89.3672C216.628 86.1631 216.596 82.9908 219.387 80.0405C220.686 78.6764 222.536 77.9468 224.517 77.9468ZM228.023 81.6584C227.081 80.7702 225.848 80.2309 224.517 80.2309C223.186 80.2309 221.952 80.7702 221.011 81.6584C220.329 82.3246 219.777 83.1494 219.485 84.1011H229.581C229.224 83.1494 228.704 82.3246 228.023 81.6584Z" fill="#EA501F"/>
<path d="M68.5161 65.6008H78.1675C78.4623 62.4264 79.3723 59.5756 80.6797 57.3722C82.4101 54.4591 84.871 52.6665 87.6523 52.6665C90.4337 52.6665 92.8818 54.4716 94.625 57.3722C95.9323 59.5631 96.8424 62.4264 97.1372 65.6008H106.776C107.917 65.6008 108.942 66.5096 108.852 67.6175L106.917 93.8472C106.673 97.1336 104.546 99.0134 101.457 99.0134H73.8481C70.413 99.0134 68.593 96.6855 68.3879 93.8472L66.4397 67.63C66.3628 66.522 67.3753 65.6008 68.5161 65.6008ZM80.5772 65.6008H94.7019C94.4199 62.8496 93.638 60.4097 92.5229 58.5423C91.2412 56.3638 89.498 55.0069 87.6523 55.0069C85.7938 55.0069 84.0635 56.3638 82.7561 58.5548C81.641 60.4097 80.872 62.8621 80.5772 65.6008Z" fill="#EA501F"/>
<path d="M80.6503 89.8819C80.2028 89.5898 80.0878 89.0178 80.3946 88.5919C80.7014 88.1659 81.3024 88.0564 81.7498 88.3484C82.0311 88.531 82.3252 88.7136 82.6448 88.8961C84.895 90.1983 86.9662 90.8434 88.6922 90.8434C90.2521 90.8434 91.5178 90.2835 92.3233 89.1517C92.3744 89.0665 92.4256 89.0178 92.4383 88.9813C92.6685 88.6284 92.8347 88.2511 92.9497 87.886C93.1799 87.1314 93.1415 86.3525 92.8219 85.6466C92.4767 84.9042 91.8119 84.1862 90.7763 83.5899C90.0858 83.1882 89.2292 82.8353 88.1936 82.5676C85.5599 81.8617 83.6165 80.8637 82.5681 79.525C81.4174 78.0524 81.3279 76.2755 82.5553 74.1214C83.3736 72.6974 85.0484 71.809 87.1708 71.6508C88.9991 71.5169 91.1982 71.9307 93.4356 73.0139C93.9214 73.2451 94.1132 73.8049 93.8575 74.2674C93.6018 74.7299 93.0265 74.9124 92.5406 74.669C90.6356 73.7441 88.8201 73.3911 87.3114 73.5007C85.8667 73.6102 84.7672 74.1457 84.2813 74.9976C83.4631 76.4215 83.4759 77.5412 84.1407 78.3931C84.9078 79.3789 86.506 80.1457 88.7306 80.742C89.9324 81.0706 90.9552 81.4844 91.7991 81.9712C93.1927 82.7744 94.126 83.7846 94.6246 84.8799C95.136 86.0117 95.2 87.2044 94.8548 88.3728C94.7013 88.8961 94.4584 89.4194 94.126 89.9306C94.0493 90.0401 93.9981 90.1253 93.9598 90.1862C92.7708 91.8535 90.9425 92.6811 88.7178 92.6932C86.6338 92.6932 84.2046 91.963 81.6476 90.4782C81.3279 90.3079 80.9955 90.1131 80.6503 89.8819Z" fill="white"/>
</svg>
