<svg width="298" height="155" viewBox="0 0 298 155" fill="none" xmlns="http://www.w3.org/2000/svg">
<g clip-path="url(#clip0_91_356)">
<path d="M131.262 59.886H135.754V81.3539H143.498V85.5915H131.281L131.262 59.886Z" fill="#000083"/>
<path d="M153.9 66.3263C156.28 66.2967 158.536 67.3742 160 69.2384V66.709H164.191V85.6287H160V83.0993C158.536 84.9635 156.28 86.041 153.9 86.0114C148.675 86.0114 144.709 81.5778 144.709 76.1642C144.709 70.7505 148.675 66.3263 153.9 66.3263V66.3263ZM154.662 70.1158C151.269 70.1158 149.022 72.7667 149.022 76.1642C149.022 79.5617 151.306 82.2219 154.662 82.2219C158.017 82.2219 160.3 79.571 160.3 76.1642C160.3 72.7573 158.054 70.1158 154.662 70.1158" fill="#000083"/>
<path d="M167.453 82.343L177.443 70.489H167.603V66.7087H182.856V70.0409L172.904 81.8483H183.082V85.6285H167.453V82.343" fill="#000083"/>
<path d="M193.739 66.3263C196.118 66.2967 198.375 67.3742 199.838 69.2384V66.709H204.029V85.6287H199.838V83.0993C198.375 84.9635 196.118 86.041 193.739 86.0114C188.514 86.0114 184.557 81.5778 184.557 76.1642C184.557 70.7505 188.514 66.3263 193.739 66.3263V66.3263ZM194.5 70.1158C191.107 70.1158 188.861 72.7667 188.861 76.1642C188.861 79.5617 191.145 82.2219 194.5 82.2219C197.855 82.2219 200.138 79.571 200.138 76.1642C200.138 72.7573 197.893 70.1158 194.5 70.1158" fill="#000083"/>
<path d="M216.004 66.3263C218.381 66.2953 220.635 67.3734 222.094 69.2384V58.3645H226.284V85.6287H222.094V83.0993C220.635 84.9644 218.381 86.0425 216.004 86.0114C210.778 86.0114 206.812 81.5778 206.812 76.1642C206.812 70.7505 210.778 66.3263 216.004 66.3263V66.3263ZM216.765 70.1158C213.372 70.1158 211.126 72.7667 211.126 76.1642C211.126 79.5618 213.419 82.2219 216.765 82.2219C220.111 82.2219 222.403 79.571 222.403 76.1642C222.403 72.7573 220.157 70.1158 216.765 70.1158" fill="#000083"/>
<path d="M238.255 66.3261C240.632 66.2951 242.887 67.3732 244.345 69.2382V66.7088H248.527V85.6285H244.326V83.0991C242.867 84.9642 240.613 86.0422 238.236 86.0112C233.011 86.0112 229.045 81.5776 229.045 76.164C229.045 70.7503 233.029 66.3261 238.255 66.3261V66.3261ZM239.016 70.1156C235.623 70.1156 233.377 72.7665 233.377 76.164C233.377 79.5615 235.67 82.2217 239.016 82.2217C242.362 82.2217 244.655 79.5708 244.655 76.164C244.655 72.7571 242.408 70.1156 239.016 70.1156" fill="#000083"/>
<path d="M82.2279 104.28C81.7734 104.283 81.3261 104.168 80.9306 103.945C77.5449 102 52.4694 86.3841 51.5225 85.9073C50.8018 85.5733 50.3097 84.8891 50.2252 84.1036V62.2007C50.2066 61.3831 50.6135 60.6137 51.3019 60.165L51.4835 60.062C53.9094 58.5674 62.03 53.6457 63.3142 52.9371C63.6089 52.7634 63.9446 52.67 64.2872 52.6665C64.6084 52.6701 64.9241 52.7496 65.2082 52.8984C65.2082 52.8984 76.572 60.2552 78.3103 60.9123C79.5299 61.4688 80.8599 61.7462 82.202 61.724C83.7227 61.7556 85.2254 61.3913 86.5606 60.6675C88.26 59.7785 99.1178 52.9371 99.2346 52.9371C99.5083 52.7729 99.8228 52.6881 100.143 52.6923C100.486 52.6939 100.822 52.7874 101.116 52.9628C102.594 53.7745 112.661 59.8945 113.089 60.165C113.797 60.5893 114.226 61.3538 114.218 62.1749V84.0778C114.138 84.8652 113.644 85.5516 112.92 85.8816C111.973 86.3969 86.9757 102.012 83.5251 103.919C83.1323 104.151 82.6847 104.275 82.2279 104.28Z" fill="url(#paint0_linear_91_356)"/>
<path d="M82.0977 104.28L82.2274 104.28C82.6819 104.283 83.1292 104.168 83.5246 103.945C86.9104 102 111.973 86.3841 112.92 85.9074C113.644 85.5774 114.138 84.891 114.217 84.1036V62.2007C114.221 61.8299 114.137 61.4634 113.971 61.1313L82.0977 78.5119V104.28Z" fill="url(#paint1_linear_91_356)"/>
<path d="M81.9883 103.972L81.8599 103.971C81.4103 103.975 80.9677 103.86 80.5766 103.64C77.2268 101.715 52.4314 86.2662 51.4945 85.7945C50.7781 85.4681 50.2896 84.789 50.2111 84.01V62.3404C50.207 61.9736 50.2905 61.611 50.4549 61.2825L81.9883 78.4779V103.972Z" fill="url(#paint2_linear_91_356)"/>
</g>
<defs>
<linearGradient id="paint0_linear_91_356" x1="50.1857" y1="53.1382" x2="113.59" y2="52.6437" gradientUnits="userSpaceOnUse">
<stop offset="1e-07" stop-color="#FF9200"/>
<stop offset="0.337553" stop-color="#F36D00"/>
<stop offset="0.56729" stop-color="#F83C72"/>
<stop offset="0.78" stop-color="#FC1CBE"/>
<stop offset="0.93" stop-color="#FE08ED"/>
<stop offset="1" stop-color="#FF00FF"/>
</linearGradient>
<linearGradient id="paint1_linear_91_356" x1="67.9974" y1="98.8939" x2="132.434" y2="62.9717" gradientUnits="userSpaceOnUse">
<stop stop-color="#EE0A3F"/>
<stop offset="1" stop-color="#EE0A3F" stop-opacity="0"/>
</linearGradient>
<linearGradient id="paint2_linear_91_356" x1="74.2898" y1="89.6298" x2="43.2204" y2="64.4303" gradientUnits="userSpaceOnUse">
<stop stop-color="#ED6600"/>
<stop offset="1" stop-color="#F98200"/>
</linearGradient>
<clipPath id="clip0_91_356">
<rect width="198.318" height="51.6136" fill="white" transform="translate(50.2109 52.6665)"/>
</clipPath>
</defs>
</svg>
