<svg width="297" height="155" viewBox="0 0 297 155" fill="none" xmlns="http://www.w3.org/2000/svg">
<path d="M153.698 73.2361C154.463 71.5705 155.037 70.4902 155.425 69.9953C156.281 68.8579 157.319 68.2869 158.529 68.2869C158.883 68.2869 159.295 68.382 159.773 68.5772V68.6438C159.773 69.8145 159.395 71.2517 158.649 72.9649C158.281 73.7882 157.922 74.2022 157.568 74.2022C157.4 74.1879 157.262 74.0975 157.152 73.9309H157.061C156.602 73.9309 156.052 74.6638 155.406 76.1343C154.975 77.1242 152.923 82.0258 149.245 90.8441C149.044 91.2486 148.657 91.4532 148.073 91.4532H147.891C144.902 91.2581 142.878 90.1636 141.821 88.1696C141.285 87.1655 140.97 85.6426 140.879 83.601V83.3298C140.879 82.3542 141.08 80.798 141.477 78.6518C141.582 78.114 141.769 77.2146 142.027 75.9535C142.228 74.9636 142.357 74.2878 142.419 73.9309C142.496 73.4979 142.534 73.0696 142.534 72.6508C142.534 71.6752 142.347 70.7329 141.984 69.8145C141.74 69.172 141.462 68.6581 141.156 68.2869H144.49C146.576 68.2869 147.992 69.1054 148.743 70.7377C149.125 71.5324 149.317 72.3938 149.317 73.3218C149.317 73.712 149.278 74.1165 149.202 74.5353C148.054 81.5975 147.461 85.1286 147.432 85.1286V85.2619C147.432 85.7854 147.523 86.1994 147.709 86.4992C147.757 86.5753 147.8 86.6134 147.848 86.6134H147.872C147.92 86.5991 147.977 86.5182 148.059 86.366C148.073 86.3231 148.365 85.6378 148.934 84.3196L153.698 73.2361Z" fill="#F23030"/>
<path d="M177.823 83.182C177.699 83.7673 177.641 84.2765 177.641 84.7096C177.641 85.609 177.885 86.1991 178.378 86.4847C178.545 86.5893 178.737 86.6417 178.952 86.6417C179.119 86.6417 179.296 86.6131 179.483 86.5513C179.899 86.418 180.301 86.1563 180.702 85.7661C181.406 85.0617 182.066 83.9815 182.678 82.5252H185.347C184.457 85.2378 183.453 87.3032 182.334 88.7118C181.367 89.9253 180.219 90.7677 178.885 91.2293C178.44 91.3816 177.904 91.453 177.273 91.453C176.766 91.453 176.206 91.4054 175.594 91.3197C173.676 91.0342 172.403 90.268 171.777 89.0259C170.672 90.6011 169.003 91.3863 166.764 91.3863H166.582C163.349 91.3292 161.201 89.6446 160.144 86.3466C159.685 84.9047 159.455 83.3485 159.455 81.6686C159.455 80.4075 159.584 79.0798 159.847 77.6854C160.646 73.3215 162.253 70.4662 164.678 69.1146C165.688 68.5436 166.931 68.258 168.405 68.258C168.739 68.258 169.079 68.2723 169.414 68.3056C170.504 68.396 171.662 68.9433 172.887 69.9474L173.255 70.2853L173.623 68.1914H180.291L179.024 75.996L178.335 80.1125L177.823 83.182ZM171.777 78.7467C171.978 77.3666 172.073 76.4434 172.073 75.9817C172.073 75.8913 172.069 75.8247 172.049 75.7771C171.973 74.9966 171.719 74.397 171.289 73.9782C170.858 73.5737 170.299 73.3691 169.61 73.3691C169.471 73.3691 169.333 73.3739 169.194 73.3929C168.103 73.5119 167.194 74.359 166.458 75.9342C165.798 77.3571 165.468 79.0608 165.468 81.0405C165.468 81.4926 165.482 81.9542 165.516 82.4348C165.578 83.182 165.812 83.8387 166.228 84.3907C166.597 84.8857 167.056 85.2378 167.606 85.4472C167.912 85.5519 168.204 85.6043 168.481 85.6043C168.711 85.6043 168.94 85.5662 169.17 85.49C169.706 85.3235 170.112 84.9808 170.39 84.4574C170.978 83.3818 171.437 81.4783 171.777 78.7467Z" fill="#F23030"/>
<path d="M203.001 82.8631C202.465 85.8612 200.94 88.1407 198.424 89.7016C196.539 90.8723 194.53 91.4577 192.397 91.4577C192.134 91.4577 191.866 91.4482 191.593 91.4339C188.709 91.2388 186.389 89.9253 184.624 87.4983C182.768 84.9665 181.84 81.5306 181.84 77.1952C181.84 76.7146 181.849 76.2197 181.864 75.7105C182.156 69.4858 183.069 64.8554 184.6 61.8097C186.073 58.8687 188.178 57.303 190.923 57.1079C191.244 57.0793 191.55 57.0603 191.842 57.0603C195.214 57.0603 197.386 58.5308 198.352 61.4718C198.706 62.5521 198.883 63.6895 198.883 64.8887C198.883 66.778 198.438 68.8338 197.548 71.0515C195.649 75.7771 193.105 79.9221 189.914 83.4913C190.421 85.1997 191.569 86.2276 193.363 86.575C193.793 86.6512 194.214 86.6893 194.63 86.6893C196.147 86.6893 197.596 86.1563 198.974 85.0903C199.863 84.4145 200.552 83.6959 201.045 82.9297L203.001 82.8631ZM194.08 69.838C195.673 66.5686 196.472 63.9988 196.472 62.1238C196.472 61.1339 196.247 60.3392 195.802 59.7396C195.601 59.454 195.271 59.3113 194.812 59.3113H194.673C194.104 59.3255 193.525 59.5349 192.928 59.9394C191.349 60.9912 190.244 62.8424 189.618 65.4931C188.589 69.7809 188.077 73.4167 188.077 76.4053V77.1239C189.321 76.2244 190.574 74.9586 191.847 73.3215C192.875 71.9462 193.621 70.785 194.08 69.838Z" fill="#F23030"/>
<path d="M219.193 68.3767C219.178 68.4671 218.265 73.8495 216.457 84.5284V84.6189C216.457 85.761 216.787 86.4177 217.447 86.5986C217.552 86.6271 217.667 86.6414 217.791 86.6414C218.313 86.6414 218.872 86.3511 219.47 85.7658C220.192 85.0757 220.848 84.005 221.446 82.5487L224.091 82.5249C223.216 85.2375 222.221 87.2934 221.101 88.6877C220.135 89.9012 218.992 90.7341 217.676 91.1862C217.203 91.3527 216.533 91.4336 215.677 91.4336H215.285V91.4574L215.237 91.4336C213.505 91.3765 212.224 90.9387 211.396 90.1297C210.889 89.5919 210.535 88.8495 210.339 87.9025C207.899 90.2724 205.776 91.4574 203.968 91.4574C203.858 91.4574 203.752 91.4479 203.647 91.4336C201.7 91.2813 200.533 90.2724 200.151 88.3974C200.026 87.8549 199.969 87.222 199.969 86.4844C199.969 84.7616 200.284 82.4964 200.911 79.6934C201.461 76.8904 201.815 75.0011 201.968 74.0255C202.045 73.5734 202.083 73.1309 202.083 72.6978C202.083 71.7508 201.906 70.8323 201.557 69.9329C201.294 69.2904 201.021 68.7765 200.729 68.4053H203.212C205.283 68.4053 206.675 69.2143 207.397 70.8323C207.766 71.6413 207.947 72.6026 207.947 73.7114C207.947 74.0113 207.933 74.3206 207.899 74.6347C207.794 75.8625 207.617 77.1759 207.373 78.5703C207.067 80.3263 206.881 81.3733 206.823 81.7207C206.469 83.5196 206.297 84.7664 206.297 85.4564V85.5468C206.326 86.2654 206.579 86.6795 207.058 86.7842C207.163 86.8127 207.273 86.8318 207.378 86.8318C208.067 86.8318 208.995 86.413 210.162 85.5706C210.176 85.228 210.21 84.9044 210.253 84.6046C210.358 83.9003 210.698 81.6636 211.267 77.8993C211.296 77.2092 211.798 74.0398 212.759 68.3862H219.193V68.3767Z" fill="#F23030"/>
<path d="M232.341 68.4669C233.752 68.4669 234.872 68.6525 235.699 69.0285C236.464 69.3759 237.124 69.7851 237.675 70.2658C238.779 71.208 239.33 72.4501 239.33 73.9777C239.33 74.1871 239.32 74.3965 239.306 74.6059C238.966 78.4606 235.34 81.4444 228.428 83.5574C229.318 85.3705 230.911 86.3842 233.212 86.5936C233.532 86.6221 233.848 86.6364 234.154 86.6364C236.115 86.6364 237.856 86.013 239.373 84.7709C240.248 84.0666 240.889 83.3337 241.305 82.5675L243.859 82.5438C242.831 85.3801 241.123 87.6025 238.732 89.2252C236.507 90.71 234.087 91.4524 231.466 91.4524H231.399C230.232 91.4381 229.045 91.1907 227.835 90.71C226.472 90.158 225.3 89.3823 224.32 88.3924C222.421 86.4889 221.469 84.0904 221.469 81.1922C221.469 80.3071 221.56 79.3696 221.746 78.3797C222.545 74.1062 224.473 71.1747 227.539 69.5853C228.964 68.8334 230.323 68.4622 231.609 68.4622H232.341V68.4669ZM227.424 81.1113C229.218 79.5837 230.868 77.7325 232.37 75.5577C233.35 74.1205 233.948 73.0973 234.164 72.4977C234.254 72.2264 234.302 71.9885 234.302 71.7791C234.302 71.2699 233.982 70.9701 233.336 70.8797C233.245 70.8654 233.145 70.8559 233.035 70.8559C232.7 70.8559 232.284 70.9178 231.791 71.0367C230.303 71.3984 229.146 72.393 228.318 74.0301C227.596 75.4387 227.237 77.0758 227.237 78.9317C227.237 79.1697 227.242 79.4172 227.261 79.6741C227.29 80.1786 227.347 80.6592 227.424 81.1113Z" fill="#F23030"/>
<path d="M201.376 107.848C201.352 107.686 201.333 107.519 201.314 107.362C201.295 107.205 201.285 107.043 201.285 106.877C201.285 106.71 201.295 106.544 201.314 106.372C201.333 106.201 201.352 106.035 201.376 105.868C201.543 105.844 201.706 105.825 201.864 105.816C202.022 105.801 202.184 105.797 202.352 105.797C202.519 105.797 202.682 105.801 202.849 105.816C203.017 105.825 203.179 105.844 203.347 105.868C203.371 106.035 203.39 106.196 203.409 106.363C203.428 106.53 203.438 106.691 203.438 106.858C203.438 107.024 203.428 107.186 203.409 107.353C203.39 107.519 203.371 107.681 203.347 107.848C203.179 107.872 203.017 107.891 202.859 107.9C202.696 107.91 202.538 107.919 202.371 107.919C202.204 107.919 202.041 107.914 201.873 107.9C201.711 107.891 201.543 107.872 201.376 107.848Z" fill="#231F20"/>
<path d="M212.442 106.272C212.537 106.438 212.619 106.643 212.69 106.89C212.762 107.138 212.805 107.39 212.815 107.652C212.116 107.923 211.318 108.056 210.418 108.056C208.902 108.056 207.759 107.628 206.989 106.776C206.219 105.924 205.836 104.773 205.836 103.321C205.836 102.65 205.932 102.027 206.118 101.446C206.309 100.87 206.587 100.371 206.96 99.9423C207.333 99.5188 207.797 99.1809 208.357 98.9334C208.912 98.686 209.557 98.5623 210.294 98.5623C210.791 98.5623 211.232 98.5908 211.609 98.6527C211.987 98.7145 212.351 98.805 212.69 98.9382C212.69 99.1381 212.667 99.3713 212.609 99.6378C212.557 99.9043 212.48 100.137 212.389 100.337C211.81 100.137 211.145 100.038 210.399 100.038C209.486 100.038 208.806 100.337 208.357 100.937C207.907 101.537 207.682 102.331 207.682 103.321C207.682 104.454 207.936 105.282 208.448 105.805C208.955 106.329 209.658 106.591 210.543 106.591C210.897 106.591 211.227 106.567 211.528 106.519C211.829 106.476 212.131 106.391 212.442 106.272Z" fill="#231F20"/>
<path d="M218.727 108.061C218.019 108.061 217.397 107.942 216.862 107.699C216.331 107.457 215.886 107.124 215.532 106.7C215.178 106.276 214.915 105.777 214.743 105.196C214.57 104.62 214.484 103.992 214.484 103.321C214.484 102.65 214.57 102.027 214.743 101.446C214.915 100.87 215.178 100.371 215.532 99.9423C215.886 99.5188 216.331 99.1809 216.862 98.9334C217.393 98.686 218.014 98.5623 218.727 98.5623C219.44 98.5623 220.062 98.686 220.593 98.9334C221.124 99.1809 221.568 99.514 221.922 99.9423C222.276 100.366 222.539 100.866 222.712 101.446C222.884 102.027 222.97 102.65 222.97 103.321C222.97 103.992 222.884 104.616 222.712 105.196C222.539 105.772 222.276 106.276 221.922 106.7C221.568 107.124 221.124 107.457 220.593 107.699C220.062 107.937 219.44 108.061 218.727 108.061ZM218.727 106.662C219.545 106.662 220.148 106.367 220.54 105.777C220.932 105.187 221.124 104.368 221.124 103.321C221.124 102.274 220.928 101.456 220.54 100.875C220.148 100.294 219.545 99.9994 218.727 99.9994C217.909 99.9994 217.307 100.29 216.924 100.875C216.541 101.456 216.345 102.274 216.345 103.321C216.345 104.368 216.536 105.187 216.924 105.777C217.311 106.367 217.914 106.662 218.727 106.662Z" fill="#231F20"/>
<path d="M225.725 98.7815C225.855 98.7577 225.984 98.7387 226.108 98.7292C226.233 98.7197 226.362 98.7101 226.491 98.7101C226.62 98.7101 226.744 98.7149 226.854 98.7292C226.964 98.7435 227.089 98.7577 227.218 98.7815C227.251 98.9576 227.29 99.1908 227.323 99.4811C227.357 99.7714 227.376 100.014 227.376 100.214C227.481 100.005 227.615 99.7999 227.778 99.6048C227.94 99.4097 228.127 99.2384 228.347 99.0813C228.567 98.9291 228.82 98.8053 229.102 98.7101C229.385 98.615 229.7 98.5674 230.045 98.5674C230.757 98.5674 231.303 98.7101 231.685 99.0004C232.068 99.2907 232.365 99.6905 232.566 100.209C232.685 100.009 232.829 99.8095 233.001 99.6096C233.173 99.4097 233.364 99.2336 233.58 99.0813C233.795 98.9291 234.034 98.8053 234.307 98.7101C234.579 98.615 234.885 98.5674 235.23 98.5674C236.282 98.5674 237.052 98.8624 237.531 99.4525C238.009 100.043 238.248 100.914 238.248 102.07V107.847C238.119 107.871 237.971 107.89 237.803 107.9C237.636 107.909 237.488 107.919 237.358 107.919C237.229 107.919 237.086 107.914 236.923 107.9C236.765 107.89 236.617 107.871 236.488 107.847V102.579C236.488 101.765 236.363 101.156 236.115 100.752C235.866 100.342 235.459 100.143 234.89 100.143C234.288 100.143 233.8 100.361 233.427 100.795C233.053 101.232 232.867 101.875 232.867 102.722V107.847C232.738 107.871 232.594 107.89 232.432 107.9C232.274 107.909 232.126 107.919 231.996 107.919C231.867 107.919 231.719 107.914 231.561 107.9C231.403 107.89 231.255 107.871 231.126 107.847V102.455C231.126 101.665 231.006 101.075 230.772 100.68C230.537 100.285 230.155 100.09 229.633 100.09C229.337 100.09 229.059 100.157 228.796 100.285C228.533 100.414 228.308 100.609 228.112 100.866C227.916 101.128 227.763 101.451 227.648 101.846C227.534 102.241 227.481 102.698 227.481 103.217V107.847C227.352 107.871 227.208 107.89 227.046 107.9C226.888 107.909 226.74 107.919 226.61 107.919C226.481 107.919 226.333 107.914 226.166 107.9C225.998 107.89 225.85 107.871 225.721 107.847V98.7815H225.725Z" fill="#231F20"/>
<path d="M100.752 92.0047C98.8006 92.0047 97.0977 91.6906 95.6579 91.0719C94.2134 90.4485 93.0223 89.5871 92.0753 88.4783C91.1282 87.3695 90.4154 86.0751 89.9371 84.5855C89.454 83.1008 89.2148 81.4922 89.2148 79.76C89.2148 78.0325 89.454 76.4097 89.9371 74.8916C90.4202 73.3735 91.1282 72.0648 92.0753 70.956C93.0223 69.8472 94.2134 68.9763 95.6579 68.3386C97.0977 67.7009 98.7958 67.3821 100.752 67.3821C102.709 67.3821 104.411 67.7009 105.87 68.3386C107.329 68.9763 108.539 69.8472 109.501 70.956C110.462 72.0648 111.175 73.3735 111.639 74.8916C112.103 76.4097 112.337 78.0325 112.337 79.76C112.337 81.4875 112.103 83.096 111.639 84.5855C111.175 86.0703 110.462 87.3695 109.501 88.4783C108.539 89.5871 107.329 90.4485 105.87 91.0719C104.411 91.6906 102.709 92.0047 100.752 92.0047ZM100.752 87.0887C102.488 87.0887 103.737 86.4605 104.497 85.1994C105.258 83.9431 105.636 82.1299 105.636 79.76C105.636 77.3901 105.258 75.5817 104.497 74.3206C103.737 73.0642 102.488 72.4313 100.752 72.4313C99.0445 72.4313 97.8152 73.0595 97.0547 74.3206C96.2941 75.5817 95.9162 77.3901 95.9162 79.76C95.9162 82.1299 96.2941 83.9383 97.0547 85.1994C97.8152 86.4605 99.0493 87.0887 100.752 87.0887Z" fill="#231F20"/>
<path d="M114.807 67.8865C115.242 67.7961 115.668 67.7342 116.084 67.7057C116.505 67.6771 116.973 67.6581 117.504 67.6581C118.37 67.6581 119.255 67.7485 120.154 67.9294C120.245 68.0816 120.331 68.3006 120.413 68.5908C120.489 68.8811 120.566 69.1905 120.647 69.5236C120.724 69.8567 120.786 70.1851 120.834 70.5039C120.881 70.8228 120.92 71.0893 120.948 71.2987C121.226 70.8133 121.57 70.3374 121.972 69.8662C122.374 69.3951 122.862 68.9811 123.436 68.6146C124.01 68.2482 124.655 67.9531 125.368 67.7247C126.081 67.4963 126.87 67.3821 127.741 67.3821C129.075 67.3821 130.324 67.6248 131.486 68.1102C132.648 68.5956 133.662 69.3332 134.533 70.3183C135.399 71.3034 136.073 72.5407 136.556 74.0255C137.035 75.5103 137.279 77.2711 137.279 79.3031C137.279 81.2733 136.982 83.0437 136.394 84.6046C135.805 86.1655 134.949 87.4932 133.835 88.5878C132.72 89.6776 131.352 90.5199 129.74 91.1148C128.128 91.7049 126.296 92.0047 124.249 92.0047C123.723 92.0047 123.201 91.9809 122.689 91.9381C122.178 91.8905 121.752 91.8381 121.412 91.781V100.2C120.824 100.29 120.255 100.352 119.714 100.38C119.174 100.409 118.638 100.428 118.107 100.428C117.576 100.428 117.045 100.414 116.505 100.38C115.959 100.352 115.395 100.29 114.807 100.2V67.8865V67.8865ZM121.412 86.451C122.249 86.6937 123.211 86.8175 124.297 86.8175C126.22 86.8175 127.693 86.2131 128.716 84.9996C129.74 83.786 130.252 81.9491 130.252 79.4935C130.252 78.5512 130.175 77.6804 130.017 76.8761C129.86 76.0718 129.597 75.3818 129.228 74.806C128.855 74.2302 128.382 73.7781 127.808 73.4402C127.234 73.107 126.526 72.9405 125.689 72.9405C124.914 72.9405 124.254 73.0833 123.713 73.3735C123.168 73.6638 122.728 74.0588 122.388 74.5585C122.049 75.0582 121.8 75.6435 121.642 76.3098C121.484 76.976 121.408 77.6899 121.408 78.4465V86.451H121.412Z" fill="#231F20"/>
<path d="M197.504 108.903C197.465 108.822 197.413 108.746 197.355 108.675C197.298 108.603 197.221 108.484 197.15 108.432L192.405 102.907L182.891 110.911L187.444 116.36C187.492 116.479 187.688 116.651 187.77 116.741C187.851 116.836 187.947 116.917 188.057 116.979L188.066 116.989H188.071C189.185 118.473 193.165 117.779 195.571 115.756C197.977 113.733 198.556 110.345 197.556 109.013" fill="#F23030"/>
<path d="M182.429 99.8902C180.396 98.0866 177.971 95.1837 178.373 92.2807C178.655 90.2487 179.999 88.6021 179.464 86.4749C179.349 86.0133 178.636 86.2084 178.751 86.67C179.354 89.0542 177.268 91.0958 177.598 93.4847C177.971 96.1783 179.923 98.6482 181.908 100.409C182.262 100.728 182.788 100.209 182.429 99.8902Z" fill="#CFD0D2"/>
<path d="M190.367 100.447C190.324 100.328 190.123 100.157 190.046 100.062C189.965 99.9663 189.87 99.8854 189.764 99.8188L189.755 99.8093L189.75 99.814C188.698 99.1906 185.278 99.0098 182.848 100.547L183.895 101.784C184.33 101.565 184.876 101.67 185.196 102.065L186.268 103.407C186.559 103.773 186.564 104.273 186.316 104.64L187.746 106.329L192.228 102.627L190.367 100.447Z" fill="#F23030"/>
<path d="M185.855 105.011C185.429 105.192 184.918 105.082 184.616 104.706L183.545 103.364C183.267 103.017 183.248 102.55 183.464 102.184L182.363 100.885C182.32 100.918 182.277 100.947 182.239 100.98C179.814 102.983 179.742 106.462 180.197 107.709L180.173 107.728L180.244 107.814C180.287 107.895 180.335 107.971 180.393 108.042C180.45 108.114 180.522 108.233 180.598 108.29L182.65 110.545L187.295 106.705L185.855 105.011Z" fill="#F23030"/>
<path d="M185.955 103.465C186.256 103.841 186.232 104.359 185.902 104.621C185.572 104.883 185.056 104.788 184.754 104.412L183.86 103.293C183.558 102.917 183.582 102.399 183.912 102.137C184.242 101.875 184.754 101.97 185.056 102.346L185.955 103.465Z" fill="#F23030"/>
<path d="M71.1876 61.1104C71.202 61.1246 68.0641 61.1104 66.7152 61.1104C59.9325 61.1104 54.1543 66.6212 54.1543 73.6596C54.1543 76.0771 54.8431 78.3328 56.0198 80.2554L71.1876 61.1104Z" fill="#F23030"/>
<path d="M87.1925 88.0696C87.0969 87.4461 86.9438 86.8513 86.7286 86.2707C86.3889 86.3325 85.9919 86.3992 85.5423 86.4753C85.0927 86.5515 84.6335 86.5895 84.1695 86.5895C83.5812 86.5895 83.0693 86.5277 82.6341 86.4087C82.1988 86.2897 81.8353 86.0613 81.5387 85.7282C81.2421 85.395 81.0173 84.9382 80.8643 84.3624C80.7064 83.7865 80.6299 83.0299 80.6299 82.0876V72.8458H86.2598C86.3507 72.3604 86.4129 71.9226 86.4463 71.5276C86.475 71.1326 86.4942 70.7233 86.4942 70.2998C86.4942 69.9048 86.4798 69.5241 86.4463 69.1624C86.4176 68.796 86.3555 68.3867 86.2598 67.9346H80.6347V61.0627H79.5632L74.1916 61.1103L74.1485 67.8204H68.5664C68.4755 68.3058 68.4133 68.7436 68.3799 69.1386C68.3512 69.5336 68.332 69.9429 68.332 70.3664C68.332 70.7614 68.3464 71.1421 68.3799 71.5038C68.4086 71.8702 68.4707 72.2795 68.5664 72.7316H74.1198V72.8458V83.4915C74.1198 86.4039 74.866 88.5026 76.3536 89.7923C77.8412 91.0819 79.9985 91.7244 82.8206 91.7244C84.3417 91.7244 85.815 91.5578 87.2404 91.2247C87.2691 91.0106 87.293 90.7916 87.3121 90.5632C87.3265 90.3348 87.336 90.054 87.336 89.7209C87.336 89.245 87.2882 88.6882 87.1925 88.0696Z" fill="#231F20"/>
</svg>
