<svg width="30" height="30" viewBox="0 0 30 30" fill="none" xmlns="http://www.w3.org/2000/svg">
<path d="M14.7751 18.1598C14.6504 18.1606 14.5279 18.1312 14.4194 18.0744C13.491 17.5783 6.61551 13.5969 6.35585 13.4754C6.15825 13.3903 6.02332 13.2157 6.00017 13.0155V7.43091C5.99505 7.22246 6.10663 7.02629 6.29539 6.91189L6.34517 6.8856C7.01033 6.50455 9.23687 5.24966 9.58912 5.06899C9.66983 5.0247 9.76195 5.00091 9.85582 5C9.94385 5.00092 10.0304 5.02119 10.1083 5.05913C10.1083 5.05913 13.2243 6.93488 13.7008 7.10242C14.0352 7.24432 14.3999 7.31505 14.768 7.30938C15.185 7.31742 15.597 7.22455 15.963 7.04001C16.429 6.81334 19.4062 5.06899 19.4382 5.06899C19.5132 5.02711 19.5995 5.0055 19.6871 5.00657C19.7813 5.00699 19.8734 5.03082 19.9539 5.07555C20.3594 5.28251 23.1196 6.8429 23.2369 6.91189C23.4311 7.02005 23.5488 7.21497 23.5464 7.42435V13.0089C23.5246 13.2097 23.3893 13.3847 23.1907 13.4688C22.931 13.6002 16.0769 17.5817 15.1307 18.0679C15.0231 18.1269 14.9003 18.1587 14.7751 18.1598Z" fill="white"/>
<path d="M14.7432 16.9648L14.7731 16.9647C14.8777 16.9654 14.9808 16.9387 15.0717 16.8871C15.8514 16.4361 21.6218 12.8161 21.8398 12.7056C22.0067 12.6291 22.1203 12.4699 22.1386 12.2874V7.20982C22.1396 7.12385 22.1201 7.0389 22.0818 6.96191L14.7432 10.9912V16.9648Z" fill="white"/>
<path d="M14.717 16.8944H14.6875C14.584 16.8951 14.482 16.8685 14.392 16.8175C13.6207 16.3713 7.91163 12.7898 7.69595 12.6804C7.53101 12.6049 7.41851 12.4474 7.40042 12.2668V7.2433C7.39947 7.15828 7.4187 7.07421 7.45657 6.99805L14.717 10.9843V16.8944Z" fill="white"/>
<path d="M4 21H4.73427V24.3406H6V25H4.00307L4 21Z" fill="white"/>
<path d="M8.41534 22.0001C8.78184 21.9956 9.12925 22.1598 9.35466 22.4439V22.0584H10V24.9416H9.35466V24.5561C9.12925 24.8402 8.78184 25.0044 8.41534 24.9999C7.61072 24.9999 7 24.3243 7 23.4993C7 22.6744 7.61072 22.0001 8.41534 22.0001ZM8.53263 22.5776C8.01017 22.5776 7.66423 22.9815 7.66423 23.4993C7.66423 24.017 8.01589 24.4224 8.53263 24.4224C9.04925 24.4224 9.40092 24.0185 9.40092 23.4993C9.40092 22.9801 9.05502 22.5776 8.53263 22.5776Z" fill="white"/>
<path d="M11 24.479L12.9176 22.5994H11.0288V22H13.9567V22.5284L12.0463 24.4006H14V25H11V24.479Z" fill="white"/>
<path d="M16.4146 22.0001C16.7812 21.9956 17.1289 22.1598 17.3542 22.4439V22.0584H18V24.9416H17.3542V24.5561C17.1289 24.8402 16.7812 25.0044 16.4146 24.9999C15.6096 24.9999 15 24.3243 15 23.4993C15 22.6744 15.6096 22.0001 16.4146 22.0001ZM16.5319 22.5776C16.0091 22.5776 15.6632 22.9815 15.6632 23.4993C15.6632 24.017 16.015 24.4224 16.5319 24.4224C17.0488 24.4224 17.4006 24.0185 17.4006 23.4993C17.4006 22.9801 17.0546 22.5776 16.5319 22.5776Z" fill="white"/>
<path d="M20.4161 22.1519C20.7823 22.1474 21.1296 22.3034 21.3542 22.5732V21H22V24.9445H21.3542V24.5786C21.1296 24.8484 20.7823 25.0044 20.4161 24.9999C19.611 24.9999 19 24.3584 19 23.5752C19 22.7919 19.611 22.1519 20.4161 22.1519ZM20.5333 22.7001C20.0106 22.7001 19.6645 23.0837 19.6645 23.5752C19.6645 24.0668 20.0178 24.4517 20.5333 24.4517C21.0488 24.4517 21.402 24.0681 21.402 23.5752C21.402 23.0823 21.056 22.7001 20.5333 22.7001Z" fill="white"/>
<path d="M24.4182 22.0001C24.7843 21.9954 25.1315 22.1597 25.356 22.4439V22.0584H26V24.9416H25.3532V24.5561C25.1286 24.8403 24.7814 25.0046 24.4154 24.9999C23.6107 24.9999 23 24.3243 23 23.4993C23 22.6744 23.6137 22.0001 24.4182 22.0001ZM24.5355 22.5776C24.013 22.5776 23.6671 22.9815 23.6671 23.4993C23.6671 24.017 24.0203 24.4224 24.5355 24.4224C25.0506 24.4224 25.4039 24.0185 25.4039 23.4993C25.4039 22.9801 25.0579 22.5776 24.5355 22.5776Z" fill="white"/>
</svg>
