<svg width="30" height="30" viewBox="0 0 30 30" fill="none" xmlns="http://www.w3.org/2000/svg">
<path d="M12.8316 4.02734C12.8388 4.03449 10.4743 4.02734 9.46505 4.02734C4.35409 4.02734 0 8.15921 0 13.44C0 15.2526 0.519024 16.9439 1.4057 18.3854L12.8316 4.02734Z" fill="white"/>
<path d="M24.8921 24.2454C24.8201 23.7816 24.7047 23.3319 24.5388 22.8967C24.2794 22.9395 23.9838 22.9966 23.6449 23.0537C23.3062 23.1107 22.9601 23.1392 22.6141 23.1392C22.1672 23.1392 21.7851 23.0965 21.4535 23.0037C21.1291 22.9109 20.848 22.7397 20.6317 22.49C20.4082 22.2401 20.2425 21.8976 20.1198 21.4694C20.0046 21.0341 19.9468 20.4704 19.9468 19.7638V12.8346H24.1928C24.265 12.4706 24.3082 12.1424 24.3298 11.8427C24.3514 11.5502 24.3658 11.2432 24.3658 10.922C24.3658 10.6295 24.3514 10.3441 24.3298 10.0658C24.3082 9.79461 24.2577 9.48769 24.1928 9.1452H19.9541V4H19.1466L15.0955 4.03568L15.0665 9.0667H10.8566C10.7846 9.43066 10.7414 9.75889 10.7197 10.0586C10.698 10.3513 10.6836 10.6581 10.6836 10.9792C10.6836 11.2717 10.698 11.5572 10.7197 11.8356C10.7414 12.1067 10.7917 12.4136 10.8566 12.7561H15.045V12.8418V20.8272C15.045 23.0109 15.6071 24.588 16.7318 25.5514C17.8563 26.5148 19.4784 27 21.6049 27C22.751 27 23.8613 26.8715 24.9353 26.6218C24.957 26.4648 24.9786 26.3006 24.9858 26.1294C25.0002 25.9581 25.0002 25.7511 25.0002 25.5014C25.0002 25.1303 24.9642 24.7165 24.8921 24.2454Z" fill="white"/>
</svg>
