<svg width="30" height="30" viewBox="0 0 30 30" fill="none" xmlns="http://www.w3.org/2000/svg">
<path d="M9.49908 9.41641C9.33666 9.51159 9.49006 9.89235 9.49908 10.3683C9.49908 10.5241 9.49908 11.0259 9.22837 11.4932C9.0479 11.8047 8.80426 11.9605 8.326 12.272C7.76653 12.6441 7.4507 12.6873 7.33338 12.7047C7.16194 12.722 6.92732 12.748 6.70172 12.6182C6.44906 12.4797 6.35881 12.2374 6.34077 12.1855C6.32272 12.1249 6.25956 11.9259 6.43101 11.4067C6.53027 11.1038 6.62954 10.9221 6.88219 10.4548C7.17998 9.88369 7.17998 9.90965 7.24315 9.76255C7.39655 9.38179 7.47777 9.00971 7.51386 8.81067C7.57702 8.51647 7.58605 8.36935 7.69434 8.11841C7.84774 7.77227 7.99212 7.70305 8.05528 7.68575C8.15454 7.65113 8.25381 7.66843 8.41623 7.68575C8.47939 7.69439 8.61476 7.71171 8.77719 7.77227C9.00277 7.85881 9.06595 7.94535 9.31861 8.11841C9.67053 8.35205 9.70663 8.37801 9.76979 8.37801C9.94125 8.36935 10.0405 8.22225 10.221 8.03187C10.4375 7.80689 10.7083 7.63383 10.9429 7.42615C11.4121 7.01079 12.1791 6.72523 14.1914 5.95507C15.3284 5.52241 15.5089 5.44453 15.9059 5.34935C16.5196 5.19359 16.9979 5.15031 17.6205 5.08975C18.3514 5.02051 18.9289 5.01187 20.0569 5.00321C21.609 4.98591 22.0241 5.03783 22.4933 5.17627C22.9896 5.32339 23.3144 5.50511 23.5761 5.69547C24.0905 6.07623 24.2529 6.35313 24.298 6.47427C24.3161 6.51755 24.3612 6.64735 24.3882 6.82041C24.5236 7.81555 23.7566 9.41641 23.7566 9.41641C23.3054 10.3596 23.0798 10.8269 22.6738 11.3202C21.9969 12.1422 21.2661 12.5835 20.7788 12.8778C20.2825 13.172 19.5245 13.5614 18.5228 13.8296C18.5228 15.3267 18.5228 16.8324 18.5228 18.3294C18.3695 18.3294 18.225 18.3294 18.0717 18.3294C18.0175 17.9486 17.9543 17.6284 17.8912 17.3775C17.8912 17.3775 17.8371 17.1612 17.6205 16.7718C17.5844 16.7111 17.5303 16.6247 17.44 16.5987C17.3588 16.5813 17.2776 16.6073 17.1693 16.6852C16.8895 16.8843 16.7632 17.1871 16.718 17.291C16.6188 17.5246 16.5016 17.8793 16.4473 18.3294C16.294 18.3294 16.1496 18.3294 15.9962 18.3294C15.9962 17.7842 15.9962 17.2303 15.9962 16.6852C15.4277 17.2303 14.8501 17.7842 14.2816 18.3294C14.1283 18.3294 13.9839 18.3294 13.8305 18.3294C14.1914 17.7842 14.5524 17.2303 14.9134 16.6852C14.805 16.6073 14.7058 16.5468 14.6427 16.5122C14.5163 16.4343 14.4622 16.4083 14.372 16.3391C14.2816 16.2698 14.2365 16.2353 14.1914 16.166C14.1283 16.0708 14.1193 15.9757 14.1012 15.8199C14.0922 15.7334 14.0832 15.6642 14.1012 15.5603C14.1193 15.4478 14.1644 15.3612 14.1914 15.3007C14.2005 15.4565 14.2456 15.5776 14.2816 15.6468C14.3267 15.742 14.372 15.794 14.4622 15.9064C14.5794 16.0536 14.6246 16.0708 14.6427 16.0795C14.7509 16.1228 14.8591 16.0968 14.9134 16.0795C15.2743 15.9757 15.545 15.5603 15.545 15.5603C16.0052 14.868 16.4293 14.0373 16.5376 13.8296C16.3571 13.821 16.1135 13.795 15.8157 13.7431C15.5721 13.6998 15.0667 13.6046 14.2816 13.3104C13.8396 13.146 13.1357 12.8778 12.2965 12.3586C11.9445 12.1422 11.367 11.6404 10.221 10.6279C10.1037 10.5241 9.89613 10.3337 9.76979 10.0221C9.67956 9.77985 9.67053 9.56351 9.67956 9.41641C9.62542 9.39911 9.55323 9.38179 9.49908 9.41641Z" fill="white"/>
<path d="M3.4545 22.7714H4.09903V24.9371C4.09903 25.1362 4.05462 25.3123 3.96582 25.4656C3.87846 25.6174 3.75457 25.7349 3.59414 25.818C3.43373 25.901 3.25255 25.9426 3.05059 25.9426C2.71973 25.9426 2.46192 25.8588 2.27716 25.6911C2.09239 25.5222 2 25.2837 2 24.9758H2.64883C2.64883 25.129 2.68107 25.2421 2.74551 25.3153C2.80996 25.3883 2.91166 25.4248 3.05059 25.4248C3.17377 25.4248 3.27189 25.3825 3.34493 25.298C3.41798 25.2135 3.4545 25.0932 3.4545 24.9371V22.7714ZM4.65118 25.8996V22.7714H5.61368C5.88868 22.7714 6.13432 22.8338 6.35059 22.9584C6.5683 23.0816 6.73803 23.2577 6.85977 23.4869C6.98151 23.7147 7.04239 23.9738 7.04239 24.2647V24.4085C7.04239 24.6994 6.98223 24.9579 6.86192 25.1842C6.74304 25.4104 6.57475 25.5859 6.35703 25.7105C6.13933 25.8351 5.89369 25.8982 5.62012 25.8996H4.65118ZM5.29571 23.2936V25.3818H5.60723C5.85932 25.3818 6.05196 25.2994 6.18516 25.1348C6.31837 24.97 6.3864 24.7345 6.38926 24.4279V24.2625C6.38926 23.9446 6.32337 23.7039 6.19161 23.5406C6.05984 23.3759 5.86719 23.2936 5.61368 23.2936H5.29571ZM11.0643 24.8576C11.0399 25.1942 10.9153 25.4592 10.6904 25.6525C10.467 25.8459 10.1719 25.9426 9.80528 25.9426C9.40423 25.9426 9.08842 25.808 8.85782 25.5387C8.62865 25.268 8.51407 24.8969 8.51407 24.4258V24.2345C8.51407 23.9338 8.56707 23.6688 8.67305 23.4397C8.77905 23.2104 8.93015 23.035 9.12637 22.9133C9.32403 22.7901 9.55319 22.7285 9.81387 22.7285C10.1748 22.7285 10.4656 22.8252 10.6861 23.0186C10.9067 23.2119 11.0342 23.4833 11.0686 23.8328H10.424C10.4083 23.6308 10.3517 23.4848 10.2543 23.3946C10.1583 23.3028 10.0115 23.2571 9.81387 23.2571C9.59903 23.2571 9.43789 23.3344 9.33048 23.4891C9.22448 23.6423 9.17005 23.8808 9.16719 24.2045V24.4408C9.16719 24.7788 9.21803 25.0259 9.31973 25.1821C9.42285 25.3382 9.58471 25.4161 9.80528 25.4161C10.0044 25.4161 10.1526 25.371 10.25 25.2808C10.3488 25.1892 10.4054 25.0481 10.4197 24.8576H11.0643ZM13.3696 24.544H12.1321V25.3818H13.5844V25.8996H11.4875V22.7714H13.5801V23.2936H12.1321V24.0391H13.3696V24.544ZM16.5062 25.8996H15.8617L14.6071 23.8414V25.8996H13.9625V22.7714H14.6071L15.8638 24.8339V22.7714H16.5062V25.8996ZM19.3594 23.2936H18.4012V25.8996H17.7566V23.2936H16.8114V22.7714H19.3594V23.2936ZM20.8869 24.7545H20.3734V25.8996H19.7289V22.7714H20.8913C21.2608 22.7714 21.5458 22.8538 21.7463 23.0186C21.9468 23.1833 22.047 23.416 22.047 23.7168C22.047 23.9302 22.0005 24.1085 21.9074 24.2518C21.8157 24.3936 21.6761 24.5067 21.4885 24.5911L22.1653 25.8696V25.8996H21.4734L20.8869 24.7545ZM20.3734 24.2324H20.8934C21.0552 24.2324 21.1806 24.1916 21.2693 24.1099C21.3581 24.0268 21.4025 23.913 21.4025 23.7683C21.4025 23.6208 21.3603 23.5048 21.2758 23.4203C21.1927 23.3358 21.0645 23.2936 20.8913 23.2936H20.3734V24.2324ZM24.3051 25.2551H23.175L22.9601 25.8996H22.2748L23.4393 22.7714H24.0365L25.2074 25.8996H24.522L24.3051 25.2551ZM23.349 24.733H24.1311L23.7378 23.5621L23.349 24.733ZM26.1441 25.3818H27.5127V25.8996H25.4996V22.7714H26.1441V25.3818Z" fill="white"/>
</svg>
