<svg width="30" height="30" viewBox="0 0 30 30" fill="none" xmlns="http://www.w3.org/2000/svg">
<path d="M6.08151 25.9941C5.99946 25.9376 5.97381 25.8248 6.03022 25.7376C6.08664 25.6556 6.19945 25.6299 6.28663 25.6863C6.33792 25.7222 6.39433 25.7582 6.45587 25.794C6.87639 26.0504 7.27128 26.1786 7.59436 26.1786C7.88666 26.1786 8.1277 26.0658 8.27642 25.8453C8.28668 25.83 8.29694 25.8197 8.29694 25.8094C8.33795 25.7376 8.37386 25.6658 8.39436 25.594C8.43538 25.4453 8.43032 25.2915 8.36873 25.1529C8.30718 25.0042 8.17898 24.8658 7.9841 24.7478C7.8559 24.6709 7.69179 24.5991 7.49692 24.5428C6.99947 24.4042 6.63536 24.2042 6.43537 23.9427C6.21997 23.6504 6.20458 23.3016 6.43537 22.876C6.58921 22.594 6.90203 22.4196 7.30204 22.3888C7.64563 22.3632 8.06102 22.4453 8.48161 22.6606C8.5738 22.7068 8.60977 22.8196 8.56354 22.9068C8.51745 22.9991 8.40461 23.0349 8.31744 22.9888C7.95847 22.8042 7.61487 22.7376 7.33281 22.7581C7.06101 22.7786 6.85076 22.8863 6.76357 23.0554C6.60971 23.3376 6.60971 23.5581 6.73793 23.7273C6.88152 23.9222 7.18409 24.0761 7.59948 24.194C7.82513 24.2555 8.01488 24.3426 8.17385 24.4402C8.43538 24.5991 8.60977 24.7991 8.7021 25.0145C8.79948 25.235 8.80974 25.4761 8.74313 25.7017C8.71236 25.8042 8.66612 25.912 8.60457 26.0094C8.58926 26.0299 8.579 26.0504 8.5738 26.0607C8.35334 26.389 8.00462 26.553 7.5841 26.553C7.19435 26.553 6.73793 26.4095 6.25587 26.1171C6.20971 26.076 6.14817 26.0402 6.08151 25.9941Z" fill="white"/>
<path d="M9.3584 22.5631C9.3584 22.4657 9.44047 22.3887 9.54305 22.3887C9.64563 22.3887 9.72755 22.4657 9.72755 22.5631V26.3734C9.72755 26.4708 9.64563 26.5478 9.54305 26.5478C9.44047 26.5478 9.3584 26.4708 9.3584 26.3734V22.5631Z" fill="white"/>
<path d="M9.73745 24.9385C9.67085 25.0154 9.558 25.0309 9.47594 24.9643C9.39907 24.8975 9.38361 24.7847 9.45036 24.7026C9.7324 24.359 10.0503 24.1488 10.3632 24.0565C10.5888 23.9899 10.8094 23.9847 10.9991 24.0359C11.1991 24.0924 11.3734 24.2051 11.4965 24.3795C11.6144 24.5437 11.6812 24.7539 11.6812 25.0051V26.3694C11.6812 26.4719 11.5991 26.554 11.4965 26.554C11.394 26.554 11.3119 26.4719 11.3119 26.3694V25.0051C11.3119 24.8309 11.2709 24.6923 11.1991 24.5897C11.1272 24.4924 11.0299 24.4258 10.9068 24.3898C10.7786 24.354 10.6298 24.359 10.4709 24.4052C10.2247 24.4821 9.96834 24.6565 9.73745 24.9385Z" fill="white"/>
<path d="M13.4918 24C13.8456 24 14.1636 24.1435 14.3944 24.3744C14.6253 24.6051 14.7687 24.923 14.7687 25.2769C14.7687 25.6308 14.6253 25.9487 14.3944 26.1795C14.1636 26.4103 13.8456 26.5539 13.4918 26.5539C13.1379 26.5539 12.8201 26.4103 12.5892 26.1795C12.3585 25.9487 12.2148 25.6308 12.2148 25.2769C12.2148 24.923 12.3585 24.6051 12.5892 24.3744C12.8201 24.1435 13.1432 24 13.4918 24ZM14.1381 24.6307C13.9739 24.4667 13.7432 24.3641 13.4918 24.3641C13.2405 24.3641 13.0148 24.4667 12.8457 24.6307C12.6815 24.7948 12.5789 25.0255 12.5789 25.2769C12.5789 25.5282 12.6815 25.7589 12.8457 25.9231C13.0098 26.0872 13.2405 26.1896 13.4918 26.1896C13.7432 26.1896 13.9687 26.0872 14.1381 25.9231C14.3021 25.7589 14.4046 25.5282 14.4046 25.2769C14.4046 25.0255 14.3021 24.7948 14.1381 24.6307Z" fill="white"/>
<path d="M15.292 24.1845C15.292 24.0819 15.3741 24 15.4766 24C15.5792 24 15.6613 24.0819 15.6613 24.1845V24.4154C15.6766 24.3999 15.6869 24.3846 15.7023 24.3744C15.9331 24.1435 16.2511 24 16.6049 24C16.9588 24 17.2766 24.1435 17.5075 24.3744C17.7382 24.6051 17.8819 24.923 17.8819 25.2769C17.8819 25.6308 17.7382 25.9487 17.5075 26.1794C17.2766 26.4103 16.9588 26.5539 16.6049 26.5539C16.2511 26.5539 15.9331 26.4103 15.7023 26.1794C15.6869 26.1641 15.6766 26.1488 15.6613 26.1385V27.8154C15.6613 27.918 15.5792 28 15.4766 28C15.3741 28 15.292 27.918 15.292 27.8154V24.1845ZM17.2458 24.6307C17.0819 24.4667 16.851 24.3641 16.5997 24.3641C16.3485 24.3641 16.1228 24.4667 15.9536 24.6307C15.7894 24.7948 15.6869 25.0255 15.6869 25.2769C15.6869 25.5282 15.7894 25.7589 15.9536 25.9231C16.1177 26.0872 16.3485 26.1896 16.5997 26.1896C16.851 26.1896 17.0767 26.0872 17.2458 25.9231C17.41 25.7589 17.5126 25.5282 17.5126 25.2769C17.5126 25.0255 17.41 24.7948 17.2458 24.6307Z" fill="white"/>
<path d="M19.6148 24C19.9276 24 20.2148 24.123 20.425 24.3384C20.5994 24.5128 20.6712 24.6872 20.7328 24.8718C20.8917 25.3896 20.5892 25.3691 20.4968 25.3691H18.7994C18.8147 25.4922 18.8455 25.6051 18.8815 25.7077C18.9481 25.8666 19.0455 25.9846 19.1686 26.0667C19.2969 26.1488 19.4609 26.1896 19.6507 26.1896C19.8558 26.1896 20.0969 26.1333 20.3635 26.0205C20.4558 25.9794 20.5636 26.0257 20.6046 26.118C20.6456 26.2102 20.5994 26.318 20.5071 26.359C20.1995 26.4871 19.9122 26.5487 19.6558 26.5539C19.3943 26.5589 19.1635 26.4974 18.9738 26.3743C18.784 26.2512 18.6198 26.082 18.543 25.8461C18.3686 25.3282 18.3635 24.8153 18.8045 24.3384C19.0097 24.1179 19.3019 24 19.6148 24ZM20.1687 24.5999C20.0199 24.4564 19.8251 24.3692 19.6148 24.3692C19.4045 24.3692 19.2096 24.4564 19.0609 24.5999C18.9533 24.7077 18.866 24.841 18.82 24.9948H20.4148C20.3584 24.841 20.2763 24.7077 20.1687 24.5999Z" fill="white"/>
<path d="M22.4156 24C22.7284 24 23.0155 24.123 23.2259 24.3384C23.4001 24.5128 23.4719 24.6872 23.5335 24.8718C23.6926 25.3896 23.3899 25.3691 23.2977 25.3691H21.6001C21.6156 25.4922 21.6462 25.6051 21.6822 25.7077C21.7488 25.8666 21.8463 25.9846 21.9694 26.0667C22.0976 26.1488 22.2617 26.1896 22.4514 26.1896C22.6566 26.1896 22.8976 26.1333 23.1643 26.0205C23.2566 25.9794 23.3643 26.0257 23.4053 26.118C23.4464 26.2102 23.4001 26.318 23.3078 26.359C23.0002 26.4871 22.713 26.5487 22.4566 26.5539C22.195 26.5589 21.9642 26.4974 21.7745 26.3743C21.5848 26.2512 21.4207 26.082 21.3437 25.8461C21.1694 25.3282 21.1642 24.8153 21.6053 24.3384C21.8104 24.1179 22.1027 24 22.4156 24ZM22.9694 24.5999C22.8207 24.4564 22.6258 24.3692 22.4156 24.3692C22.2052 24.3692 22.0105 24.4564 21.8617 24.5999C21.754 24.7077 21.6668 24.841 21.6207 24.9948H23.2156C23.1591 24.841 23.0771 24.7077 22.9694 24.5999Z" fill="white"/>
<path fill-rule="evenodd" clip-rule="evenodd" d="M11.241 7.32831H7.3793C6.92289 7.32831 6.51775 7.7078 6.54852 8.16422L7.32803 18.9644C7.41008 20.1337 8.13829 21.0927 9.51266 21.0927H20.559C21.7949 21.0927 22.6462 20.3182 22.7438 18.9644L23.518 8.15909C23.554 7.70267 23.1437 7.32831 22.6873 7.32831H18.8308C18.7128 6.02059 18.3487 4.84108 17.8257 3.93851C17.1283 2.74361 16.1487 2 15.0358 2C13.923 2 12.9384 2.73849 12.246 3.93851C11.723 4.84621 11.3589 6.02059 11.241 7.32831ZM17.8565 7.32831H12.205C12.323 6.20008 12.6306 5.18981 13.0768 4.42569C13.6 3.52312 14.2922 2.96413 15.0358 2.96413C15.7743 2.96413 16.4717 3.52312 16.9846 4.42056C17.4308 5.18981 17.7436 6.19495 17.8565 7.32831ZM12.1281 16.7582C12.005 16.9378 12.0511 17.1788 12.2307 17.3019C12.3691 17.3992 12.5025 17.4813 12.6306 17.5531C13.6563 18.1787 14.6307 18.4865 15.4665 18.4865C16.3589 18.4813 17.0923 18.1326 17.5692 17.43C17.5721 17.4252 17.5751 17.4202 17.5783 17.4147C17.5926 17.3907 17.6108 17.3599 17.6358 17.3224C17.7692 17.1069 17.8667 16.8865 17.9281 16.666C18.0667 16.1736 18.041 15.6711 17.8359 15.1941C17.6358 14.7325 17.2615 14.3068 16.7025 13.9685C16.3641 13.7633 15.9537 13.5889 15.4717 13.4505C14.5794 13.1992 13.9383 12.8762 13.6307 12.4608C13.364 12.1017 13.3588 11.63 13.6871 11.03C13.882 10.6709 14.323 10.4452 14.9025 10.3991C15.5076 10.3531 16.2358 10.5017 17 10.8914C17.1949 10.994 17.4256 10.9171 17.5282 10.7222C17.6308 10.5273 17.5538 10.2915 17.359 10.194C16.4615 9.73755 15.5794 9.56316 14.8461 9.61965C13.9948 9.68626 13.323 10.0606 12.9947 10.6607C12.5025 11.5684 12.5383 12.3172 12.9999 12.9376C13.4204 13.5018 14.1999 13.9222 15.2563 14.2197C15.6717 14.3326 16.0153 14.4812 16.2923 14.6504C16.7077 14.9018 16.9744 15.2044 17.1128 15.5172C17.241 15.8147 17.2564 16.1428 17.1641 16.4608C17.1179 16.6147 17.0512 16.7736 16.9589 16.9223C16.9563 16.9302 16.9497 16.9395 16.941 16.9513C16.9328 16.9627 16.9228 16.9766 16.9128 16.9941C16.5898 17.471 16.082 17.707 15.4563 17.707C14.7641 17.707 13.9333 17.4352 13.0307 16.8865C12.9024 16.8094 12.7845 16.7326 12.6717 16.6557C12.4922 16.5326 12.2512 16.5787 12.1281 16.7582Z" fill="white"/>
</svg>
