<svg width="106" height="21" viewBox="0 0 106 21" fill="none" xmlns="http://www.w3.org/2000/svg">
<path d="M25.5477 10.5C25.5477 16.3059 20.9396 21 15.2738 21C9.60812 21 5 16.3059 5 10.5C5 4.69412 9.60812 0 15.2738 0C20.9547 0 25.5477 4.69412 25.5477 10.5Z" fill="#EA2329"/>
<path d="M17.0717 17.1403C17.8271 14.6543 16.2407 12.7705 14.5637 10.7786C12.796 8.67858 10.9829 6.51682 11.8895 3.56755C12.2974 2.22417 13.083 1.34403 14.0651 0.710938C9.91024 1.25138 6.43526 4.50946 5.74026 8.94108C4.89418 14.3146 8.47492 19.3639 13.7176 20.244C15.2738 19.6727 16.5429 18.8543 17.0717 17.1403Z" fill="#EA2329"/>
<path d="M24.8072 12.0755C25.6533 6.70193 22.0726 1.63722 16.7997 0.772518C16.6033 0.741636 16.3918 0.710754 16.1954 0.695312C14.5787 1.26664 13.2492 2.10046 12.7204 3.84531C11.9649 6.33134 13.5513 8.21517 15.2284 10.2071C16.981 12.3071 18.8091 14.4688 17.9026 17.4181C17.4645 18.8387 16.6033 19.7497 15.5457 20.3828C20.0934 20.2438 24.0518 16.8313 24.8072 12.0755Z" fill="#EA2329"/>
<path d="M17.9028 17.4031C18.8093 14.4538 16.9811 12.2921 15.2285 10.1921C13.5515 8.20015 11.9651 6.31632 12.7205 3.83029C13.2493 2.08544 14.5789 1.25162 16.1955 0.680292C15.4703 0.603086 14.7451 0.618529 14.0501 0.711176C13.068 1.34426 12.2824 2.22441 11.8744 3.56779C10.9679 6.51706 12.7961 8.67882 14.5487 10.7788C16.2257 12.7707 17.8121 14.6546 17.0567 17.1406C16.543 18.8546 15.2588 19.6729 13.7026 20.2443C13.7177 20.2443 13.7177 20.2443 13.7328 20.2443C14.3522 20.3369 14.9566 20.3832 15.5458 20.3678C16.6034 19.7347 17.4646 18.8391 17.9028 17.4031Z" fill="white"/>
<path d="M32.6336 13.1411C33.117 13.4654 33.8574 13.7742 34.6279 13.7742C35.4589 13.7742 35.8819 13.3418 35.8819 12.6624C35.8819 12.0293 35.5042 11.6588 34.5524 11.2264C33.2379 10.6396 32.3767 9.69772 32.3767 8.21537C32.3767 6.47052 33.5099 5.14258 35.3682 5.14258C36.2596 5.14258 36.9244 5.38964 37.3928 5.65214L37 7.52052C36.6827 7.31978 36.1237 7.04185 35.338 7.04185C34.5675 7.04185 34.1898 7.48964 34.1898 8.03008C34.1898 8.67861 34.643 8.97199 35.6553 9.46611C37.0604 10.1301 37.7101 11.072 37.7101 12.508C37.7101 14.222 36.6827 15.6735 34.507 15.6735C33.6005 15.6735 32.7091 15.3646 32.2559 15.0558L32.6336 13.1411Z" fill="#171717"/>
<path d="M40.2031 15.5191L38.3296 5.3125H40.2484L40.8527 9.52794C41.034 10.7323 41.2002 12.0603 41.3211 13.0794H41.3513C41.4873 11.9676 41.6686 10.7478 41.865 9.49706L42.5298 5.3125H44.4335L45.068 9.62059C45.2493 10.8096 45.3702 11.9059 45.4911 13.0485H45.5213C45.6421 11.9059 45.8083 10.7169 45.9745 9.5125L46.6242 5.32794H48.4523L46.4127 15.5346H44.4788L43.814 11.1493C43.6629 10.1147 43.5269 9.17279 43.4363 7.99926H43.4061C43.2701 9.15735 43.1341 10.1147 42.9528 11.1493L42.1974 15.5346H40.2031V15.5191Z" fill="#171717"/>
<path d="M51.1568 5.3125H49.3589V15.5191H51.1568V5.3125Z" fill="#171717"/>
<path d="M54.239 7.24265H52.1086V5.3125H58.1974V7.24265H56.0369V15.5191H54.239V7.24265Z" fill="#171717"/>
<path d="M64.6337 15.2255C64.3013 15.4417 63.561 15.6578 62.5941 15.6578C59.8594 15.6578 58.4392 13.4652 58.4392 10.5468C58.4392 7.0571 60.3731 5.12695 62.7603 5.12695C63.697 5.12695 64.392 5.37402 64.7093 5.57475L64.3467 7.41225C63.9841 7.21152 63.4704 7.02622 62.8358 7.02622C61.4156 7.02622 60.3127 8.13798 60.3127 10.4078C60.3127 12.4461 61.2494 13.7431 62.8509 13.7431C63.3948 13.7431 63.9992 13.5887 64.3467 13.4034L64.6337 15.2255Z" fill="#171717"/>
<path d="M67.6099 5.3125V9.23456H70.5561V5.3125H72.3389V15.5191H70.5561V11.2419H67.6099V15.5191H65.812V5.3125H67.6099Z" fill="#171717"/>
<path d="M76.2822 5.3125H81.117V7.19633H78.0802V9.52794H80.9206V11.4118H78.0802V15.5191H76.2822V5.3125Z" fill="#EB2127"/>
<path d="M82.4768 5.3125H84.2747V13.5735H87.4173V15.5191H82.4768V5.3125Z" fill="#EB2127"/>
<path d="M93.189 11.1956H90.273V13.6199H93.5365V15.5191H88.4751V5.3125H93.3703V7.19633H90.273V9.32721H93.189V11.1956Z" fill="#EB2127"/>
<path d="M98.9301 15.5191L98.22 13.6662C97.9329 12.9559 97.7365 12.4309 97.5099 11.8287H97.4797C97.3135 12.4154 97.1171 12.9559 96.8753 13.6662L96.2106 15.5191H94.1709L96.4674 10.3618L94.2464 5.3125H96.3012L96.9962 7.18088C97.2379 7.79853 97.4041 8.30809 97.6006 8.87941H97.6308C97.8121 8.23088 97.9783 7.76765 98.1747 7.18088L98.8395 5.3125H100.879L98.643 10.3L101 15.5191H98.9301Z" fill="#EB2127"/>
</svg>
